<svg width="32" height="32" viewBox="0 0 32 32" fill="none" xmlns="http://www.w3.org/2000/svg">
<rect width="32" height="32" rx="5" fill="white"/>
<path d="M13.3849 8.45455H16.4247V18.5966C16.4247 19.5341 16.214 20.3485 15.7926 21.0398C15.3759 21.7311 14.7959 22.2637 14.0526 22.6378C13.3092 23.0118 12.4451 23.1989 11.4602 23.1989C10.5843 23.1989 9.78883 23.045 9.07386 22.7372C8.36364 22.4247 7.80019 21.9512 7.38352 21.3168C6.96686 20.6776 6.76089 19.875 6.76562 18.9091H9.8267C9.83617 19.2926 9.9143 19.6217 10.0611 19.8963C10.2126 20.1662 10.4186 20.3745 10.679 20.5213C10.9441 20.6634 11.2566 20.7344 11.6165 20.7344C11.9953 20.7344 12.3149 20.6539 12.5753 20.4929C12.8404 20.3272 13.0417 20.0857 13.179 19.7685C13.3163 19.4512 13.3849 19.0606 13.3849 18.5966V8.45455Z" fill="#1E1E1E"/>
<path d="M15.7896 23V8.45455H21.5282C22.6315 8.45455 23.5713 8.66525 24.3478 9.08665C25.1243 9.50331 25.7162 10.0833 26.1234 10.8267C26.5353 11.5653 26.7413 12.4176 26.7413 13.3835C26.7413 14.3494 26.533 15.2017 26.1163 15.9403C25.6996 16.679 25.0959 17.2543 24.3052 17.6662C23.5192 18.0781 22.5675 18.2841 21.4501 18.2841H17.7924V15.8196H20.9529C21.5448 15.8196 22.0325 15.7178 22.416 15.5142C22.8043 15.3059 23.0931 15.0194 23.2825 14.6548C23.4766 14.2855 23.5737 13.8617 23.5737 13.3835C23.5737 12.9006 23.4766 12.4792 23.2825 12.1193C23.0931 11.7547 22.8043 11.473 22.416 11.2741C22.0278 11.0705 21.5353 10.9688 20.9387 10.9688H18.8649V23H15.7896Z" fill="#1E1E1E"/>
</svg>
