<svg width="45" height="44" viewBox="0 0 45 44" fill="none" xmlns="http://www.w3.org/2000/svg">
<rect x="1.38913" y="4.47284" width="42.3684" height="37.5065" fill="white"/>
<path d="M38.3434 37.1927H31.6756V27.0639C31.6756 24.6486 31.6312 21.5394 28.2077 21.5394C24.7348 21.5394 24.2035 24.1709 24.2035 26.8881V37.1921H17.5356V16.3631H23.9367V19.2096H24.0264C24.667 18.1472 25.5927 17.2731 26.7048 16.6806C27.817 16.0882 29.0741 15.7994 30.3421 15.845C37.1002 15.845 38.3462 20.1569 38.3462 25.7663L38.3434 37.1927ZM10.0121 13.5159C9.24683 13.5161 8.49866 13.2961 7.86226 12.8838C7.22587 12.4714 6.72984 11.8853 6.43685 11.1996C6.14385 10.5138 6.06707 9.75912 6.21623 9.03101C6.3654 8.30291 6.73382 7.63407 7.27487 7.10906C7.81592 6.58405 8.50532 6.22646 9.25589 6.08151C10.0065 5.93655 10.7845 6.01075 11.4916 6.2947C12.1987 6.57866 12.8031 7.05963 13.2284 7.67679C13.6536 8.29395 13.8807 9.01958 13.8809 9.76192C13.881 10.2548 13.7809 10.7429 13.5866 11.1983C13.3922 11.6537 13.1073 12.0675 12.748 12.4161C12.3888 12.7647 11.9623 13.0413 11.4928 13.23C11.0234 13.4187 10.5203 13.5158 10.0121 13.5159ZM13.346 37.1927H6.67128V16.3631H13.346V37.1927ZM41.6676 0.00297395H3.32072C2.45035 -0.00655348 1.61165 0.319488 0.988983 0.909452C0.366316 1.49942 0.0106223 2.30503 0 3.14928V40.5001C0.0102588 41.3447 0.365744 42.1509 0.98839 42.7415C1.61104 43.3321 2.44992 43.6587 3.32072 43.6497H41.6676C42.5401 43.6604 43.3814 43.3346 44.0065 42.7441C44.6316 42.1535 44.9894 41.3464 45.0015 40.5001V3.14659C44.9891 2.30067 44.631 1.49413 44.0058 0.904181C43.3807 0.314231 42.5397 -0.0108787 41.6676 0.000277945" fill="#0A66C2"/>
</svg>
